# xmcd
#
# Track frame offsets: 
#        150
#        11070
#        17781
#        31862
#        45039
#        62580
#        73808
#        82064
#        96138
#        109063
#
# Disc length: 1638 seconds
#
# Revision: 2
# Processed by: cddbd v1.5.2PL0 Copyright (c) Steve Scherf et al.
# Submitted via: ExactAudioCopy v0.95a5
#
DISCID=7606640a
DTITLE=Diane Arkenstone and Misha Segal - Christmas Healing, Volume 2
DYEAR=2006
DGENRE=New Age
TTITLE0=Away in Manger
TTITLE1=Deck the Halls
TTITLE2=What Child is This?
TTITLE3=O Little Town of Bethlehem
TTITLE4=We Three Kings
TTITLE5=O Holy Night
TTITLE6=The Holly and the Ivy
TTITLE7=Hark! The Herald Angels Sing
TTITLE8=O Come, All Ye Faithful
TTITLE9=The Little Drummer Boy
EXTD=YEAR: 2006
EXTT0=
EXTT1=
EXTT2=
EXTT3=
EXTT4=
EXTT5=
EXTT6=
EXTT7=
EXTT8=
EXTT9=
PLAYORDER=
